<?xml version="1.0" encoding="UTF-8" standalone="no"?>
<!-- Generator: Adobe Illustrator 27.0.0, SVG Export Plug-In . SVG Version: 6.00 Build 0)  -->

<svg
   version="1.1"
   id="Logo"
   x="0px"
   y="0px"
   viewBox="0 0 166 166"
   xml:space="preserve"
   sodipodi:docname="APS logo-black.svg"
   inkscape:version="1.3.2 (091e20e, 2023-11-25)"
   inkscape:export-filename="../../../../Documents/alberta paleontological society/socials/2025/APS logo-black-transparent.png"
   inkscape:export-xdpi="1000"
   inkscape:export-ydpi="1000"
   width="166"
   height="166"
   xmlns:inkscape="http://www.inkscape.org/namespaces/inkscape"
   xmlns:sodipodi="http://sodipodi.sourceforge.net/DTD/sodipodi-0.dtd"
   xmlns="http://www.w3.org/2000/svg"
   xmlns:svg="http://www.w3.org/2000/svg"><defs
   id="defs33"><filter
     style="color-interpolation-filters:sRGB"
     inkscape:label="Invert"
     id="filter1"><feColorMatrix
       values="-1 0 0 0 1 0 -1 0 0 1 0 0 -1 0 1 0.21 0.72 0.07 1 0 "
       result="fbSourceGraphic"
       id="feColorMatrix1" /><feColorMatrix
       result="fbSourceGraphicAlpha"
       in="fbSourceGraphic"
       values="0 0 0 -1 0 0 0 0 -1 0 0 0 0 -1 0 0 0 0 1 0"
       id="feColorMatrix7" /><feColorMatrix
       id="feColorMatrix8"
       values="-1 0 0 0 1 0 -1 0 0 1 0 0 -1 0 1 0.21 0.72 0.07 1 0 "
       result="fbSourceGraphic"
       in="fbSourceGraphic" /><feColorMatrix
       result="fbSourceGraphicAlpha"
       in="fbSourceGraphic"
       values="0 0 0 -1 0 0 0 0 -1 0 0 0 0 -1 0 0 0 0 1 0"
       id="feColorMatrix19" /><feColorMatrix
       id="feColorMatrix20"
       values="-1 0 0 0 1 0 -1 0 0 1 0 0 -1 0 1 0.21 0.72 0.07 1 0 "
       result="color2"
       in="fbSourceGraphic" /></filter><filter
     style="color-interpolation-filters:sRGB"
     inkscape:label="Invert"
     id="filter2"
     x="-0.012244011"
     y="-0.07219338"
     width="1.0244278"
     height="1.0946954"><feColorMatrix
       values="-1 0 0 0 1 0 -1 0 0 1 0 0 -1 0 1 0.21 0.72 0.07 1 0 "
       result="fbSourceGraphic"
       id="feColorMatrix2" /><feColorMatrix
       result="fbSourceGraphicAlpha"
       in="fbSourceGraphic"
       values="0 0 0 -1 0 0 0 0 -1 0 0 0 0 -1 0 0 0 0 1 0"
       id="feColorMatrix9" /><feColorMatrix
       id="feColorMatrix10"
       values="-1 0 0 0 1 0 -1 0 0 1 0 0 -1 0 1 0.21 0.72 0.07 1 0 "
       result="fbSourceGraphic"
       in="fbSourceGraphic" /><feColorMatrix
       result="fbSourceGraphicAlpha"
       in="fbSourceGraphic"
       values="0 0 0 -1 0 0 0 0 -1 0 0 0 0 -1 0 0 0 0 1 0"
       id="feColorMatrix21" /><feColorMatrix
       id="feColorMatrix22"
       values="-1 0 0 0 1 0 -1 0 0 1 0 0 -1 0 1 0.21 0.72 0.07 1 0 "
       result="color2"
       in="fbSourceGraphic" /></filter><filter
     style="color-interpolation-filters:sRGB"
     inkscape:label="Invert"
     id="filter3"
     x="-0.0088186672"
     y="-0.0088186672"
     width="1.0176373"
     height="1.0176373"><feColorMatrix
       values="-1 0 0 0 1 0 -1 0 0 1 0 0 -1 0 1 0.21 0.72 0.07 1 0 "
       result="fbSourceGraphic"
       id="feColorMatrix3" /><feColorMatrix
       result="fbSourceGraphicAlpha"
       in="fbSourceGraphic"
       values="0 0 0 -1 0 0 0 0 -1 0 0 0 0 -1 0 0 0 0 1 0"
       id="feColorMatrix11" /><feColorMatrix
       id="feColorMatrix12"
       values="-1 0 0 0 1 0 -1 0 0 1 0 0 -1 0 1 0.21 0.72 0.07 1 0 "
       result="fbSourceGraphic"
       in="fbSourceGraphic" /><feColorMatrix
       result="fbSourceGraphicAlpha"
       in="fbSourceGraphic"
       values="0 0 0 -1 0 0 0 0 -1 0 0 0 0 -1 0 0 0 0 1 0"
       id="feColorMatrix23" /><feColorMatrix
       id="feColorMatrix24"
       values="-1 0 0 0 1 0 -1 0 0 1 0 0 -1 0 1 0.21 0.72 0.07 1 0 "
       result="color2"
       in="fbSourceGraphic" /></filter><filter
     style="color-interpolation-filters:sRGB"
     inkscape:label="Invert"
     id="filter4"
     x="-0.003472916"
     y="-0.0035740668"
     width="1.0068511"
     height="1.0091848"><feColorMatrix
       values="-1 0 0 0 1 0 -1 0 0 1 0 0 -1 0 1 0.21 0.72 0.07 1 0 "
       result="fbSourceGraphic"
       id="feColorMatrix4" /><feColorMatrix
       result="fbSourceGraphicAlpha"
       in="fbSourceGraphic"
       values="0 0 0 -1 0 0 0 0 -1 0 0 0 0 -1 0 0 0 0 1 0"
       id="feColorMatrix13" /><feColorMatrix
       id="feColorMatrix14"
       values="-1 0 0 0 1 0 -1 0 0 1 0 0 -1 0 1 0.21 0.72 0.07 1 0 "
       result="fbSourceGraphic"
       in="fbSourceGraphic" /><feColorMatrix
       result="fbSourceGraphicAlpha"
       in="fbSourceGraphic"
       values="0 0 0 -1 0 0 0 0 -1 0 0 0 0 -1 0 0 0 0 1 0"
       id="feColorMatrix25" /><feColorMatrix
       id="feColorMatrix26"
       values="-1 0 0 0 1 0 -1 0 0 1 0 0 -1 0 1 0.21 0.72 0.07 1 0 "
       result="color2"
       in="fbSourceGraphic" /></filter><filter
     style="color-interpolation-filters:sRGB"
     inkscape:label="Invert"
     id="filter5"
     x="-0.012345679"
     y="-0.012345679"
     width="1.0246914"
     height="1.0246914"><feColorMatrix
       values="-1 0 0 0 1 0 -1 0 0 1 0 0 -1 0 1 0.21 0.72 0.07 1 0 "
       result="fbSourceGraphic"
       id="feColorMatrix5" /><feColorMatrix
       result="fbSourceGraphicAlpha"
       in="fbSourceGraphic"
       values="0 0 0 -1 0 0 0 0 -1 0 0 0 0 -1 0 0 0 0 1 0"
       id="feColorMatrix15" /><feColorMatrix
       id="feColorMatrix16"
       values="-1 0 0 0 1 0 -1 0 0 1 0 0 -1 0 1 0.21 0.72 0.07 1 0 "
       result="fbSourceGraphic"
       in="fbSourceGraphic" /><feColorMatrix
       result="fbSourceGraphicAlpha"
       in="fbSourceGraphic"
       values="0 0 0 -1 0 0 0 0 -1 0 0 0 0 -1 0 0 0 0 1 0"
       id="feColorMatrix27" /><feColorMatrix
       id="feColorMatrix28"
       values="-1 0 0 0 1 0 -1 0 0 1 0 0 -1 0 1 0.21 0.72 0.07 1 0 "
       result="color2"
       in="fbSourceGraphic" /></filter><filter
     style="color-interpolation-filters:sRGB"
     inkscape:label="Invert"
     id="filter6"
     x="-0.02173913"
     y="-0.0130085"
     width="1.0437225"
     height="1.0243207"><feColorMatrix
       values="-1 0 0 0 1 0 -1 0 0 1 0 0 -1 0 1 0.21 0.72 0.07 1 0 "
       result="fbSourceGraphic"
       id="feColorMatrix6" /><feColorMatrix
       result="fbSourceGraphicAlpha"
       in="fbSourceGraphic"
       values="0 0 0 -1 0 0 0 0 -1 0 0 0 0 -1 0 0 0 0 1 0"
       id="feColorMatrix17" /><feColorMatrix
       id="feColorMatrix18"
       values="-1 0 0 0 1 0 -1 0 0 1 0 0 -1 0 1 0.21 0.72 0.07 1 0 "
       result="fbSourceGraphic"
       in="fbSourceGraphic" /><feColorMatrix
       result="fbSourceGraphicAlpha"
       in="fbSourceGraphic"
       values="0 0 0 -1 0 0 0 0 -1 0 0 0 0 -1 0 0 0 0 1 0"
       id="feColorMatrix29" /><feColorMatrix
       id="feColorMatrix30"
       values="-1 0 0 0 1 0 -1 0 0 1 0 0 -1 0 1 0.21 0.72 0.07 1 0 "
       result="color2"
       in="fbSourceGraphic" /></filter></defs><sodipodi:namedview
   id="namedview33"
   pagecolor="#000000"
   bordercolor="#000000"
   borderopacity="0.25"
   inkscape:showpageshadow="2"
   inkscape:pageopacity="0.0"
   inkscape:pagecheckerboard="false"
   inkscape:deskcolor="#d1d1d1"
   inkscape:zoom="1.7370632"
   inkscape:cx="67.06722"
   inkscape:cy="65.628009"
   inkscape:window-width="1440"
   inkscape:window-height="847"
   inkscape:window-x="0"
   inkscape:window-y="25"
   inkscape:window-maximized="1"
   inkscape:current-layer="Logo"
   inkscape:export-bgcolor="#00000000" />
<style
   type="text/css"
   id="style1">
	.st0{fill:#FFFFFF;stroke:#000000;stroke-width:2;stroke-miterlimit:3.8636;}
	.st1{fill:none;stroke:#000000;stroke-width:4;}
	.st2{stroke:#000000;}
	.st3{fill:none;stroke:#000000;stroke-width:2;}
	.st4{stroke:#000000;stroke-width:2;stroke-miterlimit:3.8636;}
</style>
<path
   class="st0"
   d="m 83.2,125.3 c 7.2,0.6 14.5,0.8 21.8,1 0,0 0,0 0.1,0 0.1,-7.4 1,-84.9 1,-84.9 0,0 -10.3,-0.4 -18.8,-1 -8.4,-0.7 -19.2,-2.5 -19.2,-2.5 0,0 -7.6,44.2 -7.7,45 -0.1,0.4 -0.1,0.7 -0.2,1.1 0,0.2 -0.1,0.5 -0.1,0.7 0,0 0.4,0.3 0.4,0.5 0.1,0.2 0,0.4 0.1,0.5 0.1,0.1 0.3,0.2 0.4,0.3 0.1,0.1 0.3,0.4 0.3,0.5 0,0.2 -0.2,0.1 -0.3,0 -0.1,-0.1 -0.3,-0.3 -0.5,-0.2 -0.3,0.2 0,0.2 0,0.4 0,0.5 -0.1,0.7 0.3,1.1 0.2,0.3 0.6,0.4 0.8,0.6 0.3,0.3 0.7,0.2 0.9,0.5 0.1,0.2 0.1,0.4 0.1,0.6 0.1,0.1 0.3,0.3 0.4,0.4 0.2,0.2 0.5,0.9 0.9,0.7 0.3,-0.1 0.1,-0.9 0.6,-0.6 0.3,0.2 0.4,0.7 0.5,1.1 0.1,0.4 0.4,0.5 0.5,0.9 0.1,0.4 0,0.8 0.6,0.8 0.5,0 0.6,0.2 0.3,0.7 -0.1,0.1 0.2,0.8 0.2,1.1 0,0.4 0.3,0.8 0.2,1.1 0,0.2 0.1,0.2 0.1,0.4 0,0.2 -0.1,0.5 -0.1,0.6 0,0.6 0.4,0.1 0.5,-0.1 0.1,-0.1 0.7,-0.3 0.8,-0.3 0.3,0 0.2,0.6 0.6,0.7 0.2,0.1 0.9,0.3 0.5,0.6 -0.4,0.3 -0.8,0.5 -0.2,1 0.3,0.2 0.1,0.6 0.6,0.6 0.2,0 0.5,0 0.7,0.1 0.6,0.3 0.6,1.1 1,1.5 0.4,0.4 0.6,0.8 0.8,1.4 0.1,0.3 0.3,0.7 0.6,0.7 0.3,0 0.6,-0.4 0.9,-0.4 0.3,0.1 0.7,1.4 0.8,1.8 0.1,0.3 0.4,0.5 0.5,0.8 0.2,0.4 0,0.8 0.2,1.1 0.2,0.3 0.5,0.4 0.8,0.6 0.4,0.3 0.3,0.3 0.4,0.8 0,0.2 0.6,0.6 0.8,0.7 0.4,0.3 0.6,0.5 0.9,0.8 0.1,0.1 0.3,0.4 0.2,0.5 -0.1,0.1 -0.4,0.1 -0.4,0.3 0,0.1 0.3,0.1 0.4,0.1 0.1,0.1 0.1,0.2 0.2,0.3 0.2,0.4 0.4,0.4 0.7,0.6 0.2,0.1 0.2,0.3 0.3,0.4 0.1,0.2 -0.1,0.4 0,0.6 0.2,0.8 1,0.1 1.3,0.5 0.4,0.6 1.1,1.3 1.2,2 0,0.3 -0.1,0.6 -0.1,1 0.1,0.4 0.2,0.9 0.3,1.3 0.1,0.3 -0.3,0.6 -0.2,0.9 0.2,0.4 0.2,0.9 0.2,1.3 -0.1,0.4 -0.6,0.7 -0.6,1.1 -0.1,0.6 1,0.2 0.7,0.8 -0.4,0.8 0.4,1.7 0.8,2.3 0.2,0.5 0.7,0.6 1,0.9 0.6,0.4 0.3,0.7 -0.2,0.9"
   id="path1"
   inkscape:export-filename="APS logo-white.png"
   inkscape:export-xdpi="600"
   inkscape:export-ydpi="600"
   style="fill:none;fill-opacity:0;filter:url(#filter6)" />
<path
   class="st1"
   d="m 164,83 c 0,44.7 -36.3,81 -81,81 C 38.3,164 2,127.7 2,83 2,38.3 38.3,2 83,2 c 44.7,0 81,36.3 81,81 z"
   id="path2"
   style="filter:url(#filter5)" />
<g
   id="g32"
   style="filter:url(#filter4)"
   transform="translate(-232.5,-306.9)">
	<path
   class="st2"
   d="m 290.7,447.5 -9.6,8.1 -2.2,-1.2 1.6,-12.5 2.2,1.2 -0.4,3.3 4.3,2.3 2.6,-2.2 z m -5.4,2.4 -3.2,-1.7 -0.6,5 z"
   id="path3" />
	<path
   class="st2"
   d="m 279.2,440.8 -7.3,9.2 -1.9,-1.5 6.3,-7.9 -4.1,-3.2 1,-1.3 z"
   id="path4" />
	<path
   class="st2"
   d="m 271.9,434.8 -8.6,8 -2.7,-2.9 c -0.6,-0.7 -1.1,-1.3 -1.2,-1.8 -0.2,-0.5 -0.2,-1 0,-1.4 0.1,-0.5 0.4,-0.9 0.7,-1.2 0.4,-0.4 1,-0.6 1.7,-0.7 0.7,-0.1 1.5,0.2 2.5,0.7 -0.4,-0.8 -0.7,-1.4 -0.7,-1.9 -0.1,-0.5 0,-1 0.1,-1.5 0.2,-0.5 0.4,-0.8 0.8,-1.2 0.4,-0.4 0.8,-0.6 1.4,-0.7 0.5,-0.1 1,-0.1 1.5,0.1 0.5,0.2 1.1,0.6 1.8,1.4 z m -6.6,2.9 -0.4,-0.4 c -0.5,-0.5 -1,-0.8 -1.5,-0.8 -0.5,0 -1,0.1 -1.4,0.5 -0.2,0.2 -0.3,0.4 -0.4,0.6 -0.1,0.2 -0.1,0.5 0,0.7 0.1,0.3 0.4,0.7 0.9,1.3 l 0.3,0.3 z m 3.8,-3.5 -0.3,-0.3 c -0.6,-0.6 -1,-1 -1.3,-1.2 -0.3,-0.1 -0.6,-0.2 -0.9,-0.1 -0.3,0.1 -0.5,0.2 -0.8,0.4 -0.4,0.4 -0.6,0.9 -0.6,1.6 0,0.7 0.3,1.3 0.9,1.8 l 0.3,0.3 z"
   id="path5" />
	<path
   class="st2"
   d="m 265.2,427.1 -9.8,6.5 -4.2,-6.3 1.3,-0.9 2.8,4.2 2.7,-1.8 -2.3,-3.5 1.4,-0.9 2.3,3.5 3,-2 -3,-4.5 1.4,-0.9 z"
   id="path6" />
	<path
   class="st2"
   d="m 259.9,418.8 -10.7,4.8 -1.8,-4 c -0.4,-0.8 -0.5,-1.5 -0.5,-2 0,-0.5 0.2,-1 0.5,-1.4 0.3,-0.4 0.7,-0.8 1.3,-1 0.6,-0.3 1.3,-0.4 2,-0.2 0.7,0.1 1.4,0.4 2,1 l 3.5,-5.7 1.2,2.7 -3.2,4.6 0.5,1.2 4.4,-1.9 z m -6.8,0.5 -0.2,-0.5 c -0.4,-0.9 -0.9,-1.5 -1.4,-1.6 -0.6,-0.2 -1.1,-0.1 -1.6,0.1 -0.4,0.2 -0.7,0.5 -0.9,0.9 -0.1,0.4 0,1 0.4,1.9 l 0.3,0.8 z"
   id="path7" />
	<path
   class="st2"
   d="m 254.9,405.6 -9.8,2.4 1,4.1 -1.6,0.4 -2.5,-10.6 1.6,-0.4 1,4.1 9.8,-2.4 z"
   id="path8" />
	<path
   class="st2"
   d="m 253.3,399.2 -11.9,-4 -0.1,-2.4 11.5,-5.1 0.1,2.5 -3.1,1.4 0.2,4.9 3.2,1.1 z m -4.9,-3.4 -0.2,-3.6 -4.6,2 z"
   id="path9" />
	<path
   class="st2"
   d="m 254.3,376.1 -11.3,-3.2 1.1,-3.9 c 0.3,-1.1 0.7,-1.9 1,-2.3 0.4,-0.4 0.8,-0.6 1.3,-0.8 0.5,-0.1 1.1,-0.1 1.7,0.1 1.3,0.4 2.1,1 2.5,2 0.4,1 0.5,2.1 0.1,3.5 l -0.3,1 4.4,1.3 z m -5.3,-4 0.1,-0.4 c 0.2,-0.9 0.2,-1.6 -0.1,-2.1 -0.3,-0.5 -0.7,-0.9 -1.3,-1 -0.3,-0.1 -0.6,-0.1 -0.9,-0.1 -0.3,0.1 -0.6,0.2 -0.8,0.4 -0.2,0.2 -0.4,0.6 -0.6,1.2 l -0.3,0.9 z"
   id="path10" />
	<path
   class="st2"
   d="m 256.5,368 -8.6,-9.2 1.1,-2.2 12.6,1 -1.1,2.3 -3.4,-0.3 -2.1,4.4 2.3,2.5 z m -2.7,-5.2 1.6,-3.3 -5,-0.4 z"
   id="path11" />
	<path
   class="st2"
   d="m 262.8,355.9 -9.5,-6.9 1.4,-2 8.2,5.9 3.1,-4.2 1.4,1 z"
   id="path12" />
	<path
   class="st2"
   d="m 267.8,348.9 -4.9,-11.6 1.8,-1.7 11.5,5.3 -1.8,1.7 -3.1,-1.4 -3.5,3.4 1.3,3.1 z m -0.7,-5.9 2.6,-2.5 -4.6,-2.1 z"
   id="path13" />
	<path
   class="st2"
   d="m 277.2,340.2 -6.7,-9.7 6.2,-4.3 0.9,1.3 -4.2,2.9 1.9,2.7 3.5,-2.4 0.9,1.3 -3.5,2.4 2,2.9 4.5,-3.1 0.9,1.4 z"
   id="path14" />
	<path
   class="st2"
   d="m 289.9,333 c -1.1,0.5 -2.2,0.7 -3.2,0.6 -1,-0.1 -2,-0.5 -2.8,-1.1 -0.8,-0.7 -1.5,-1.6 -2,-2.7 -0.5,-1.1 -0.7,-2.2 -0.7,-3.2 0,-1.1 0.4,-2 1,-2.8 0.6,-0.8 1.5,-1.5 2.6,-2 1.1,-0.5 2.2,-0.7 3.2,-0.6 1,0.1 2,0.5 2.8,1.1 0.8,0.7 1.5,1.6 2,2.6 0.5,1.1 0.7,2.2 0.7,3.2 0,1.1 -0.4,2 -1,2.8 -0.6,1 -1.5,1.6 -2.6,2.1 z m -0.7,-1.4 c 1,-0.5 1.6,-1.2 1.7,-2.3 0.1,-1.1 -0.1,-2.1 -0.5,-3.2 -0.5,-1.1 -1.2,-1.9 -2.1,-2.6 -0.9,-0.6 -1.8,-0.7 -2.9,-0.2 -1,0.5 -1.6,1.2 -1.7,2.3 -0.1,1.1 0.1,2.1 0.5,3.2 0.5,1.1 1.2,1.9 2.1,2.6 0.9,0.5 1.9,0.6 2.9,0.2 z"
   id="path15" />
	<path
   class="st2"
   d="m 297.4,329.7 -2.5,-11.5 2.1,-0.5 7,6.7 -1.7,-7.8 1.9,-0.4 2.5,11.5 -2.1,0.5 -7,-6.7 1.7,7.8 z"
   id="path16" />
	<path
   class="st2"
   d="m 312.5,327.3 -0.3,-10.1 -4.2,0.1 v -1.6 l 10.9,-0.3 v 1.6 l -4.2,0.1 0.3,10.1 z"
   id="path17" />
	<path
   class="st2"
   d="m 325.6,328.4 c -1.2,-0.2 -2.2,-0.6 -3,-1.3 -0.8,-0.6 -1.4,-1.5 -1.7,-2.5 -0.3,-1 -0.4,-2.1 -0.2,-3.3 0.2,-1.2 0.6,-2.2 1.2,-3.1 0.6,-0.9 1.4,-1.5 2.4,-1.8 1,-0.4 2.1,-0.4 3.3,-0.2 1.2,0.2 2.2,0.6 3,1.3 0.8,0.6 1.4,1.5 1.7,2.5 0.3,1 0.4,2.1 0.2,3.3 -0.2,1.2 -0.6,2.2 -1.2,3.1 -0.6,0.9 -1.4,1.5 -2.4,1.8 -1,0.3 -2.1,0.4 -3.3,0.2 z m 0.2,-1.6 c 1.1,0.2 2,-0.1 2.7,-1 0.7,-0.8 1.1,-1.8 1.3,-3 0.2,-1.2 0.1,-2.3 -0.3,-3.3 -0.4,-1 -1.2,-1.6 -2.3,-1.8 -1.1,-0.2 -2,0.1 -2.7,0.9 -0.7,0.8 -1.1,1.8 -1.3,3 -0.2,1.2 -0.1,2.3 0.3,3.3 0.5,1.1 1.2,1.7 2.3,1.9 z"
   id="path18" />
	<path
   class="st2"
   d="m 333.2,329.7 3.9,-11.1 2.3,0.8 -3.4,9.5 4.9,1.7 -0.6,1.6 z"
   id="path19" />
	<path
   class="st2"
   d="m 346.5,335.9 c -1.1,-0.6 -1.9,-1.4 -2.4,-2.3 -0.5,-0.9 -0.8,-1.9 -0.7,-2.9 0.1,-1.1 0.4,-2.1 1,-3.1 0.6,-1 1.3,-1.8 2.2,-2.4 0.9,-0.6 1.8,-0.9 2.9,-0.9 1,0 2.1,0.3 3.1,0.9 1,0.6 1.8,1.4 2.4,2.2 0.5,0.9 0.8,1.9 0.7,2.9 -0.1,1.1 -0.4,2.1 -1,3.1 -0.6,1 -1.3,1.9 -2.2,2.4 -0.9,0.6 -1.8,0.9 -2.9,0.9 -1,0.1 -2.1,-0.2 -3.1,-0.8 z m 0.8,-1.4 c 1,0.6 1.9,0.6 2.9,0.1 0.9,-0.5 1.7,-1.3 2.3,-2.3 0.6,-1 0.9,-2.1 0.9,-3.2 0,-1.1 -0.5,-1.9 -1.5,-2.5 -1,-0.6 -1.9,-0.6 -2.9,-0.1 -0.9,0.5 -1.7,1.3 -2.3,2.3 -0.6,1 -0.9,2.1 -0.9,3.2 0,1.1 0.5,1.9 1.5,2.5 z"
   id="path20" />
	<path
   class="st2"
   d="m 360.7,346 c -1,-0.5 -1.6,-0.9 -2,-1.2 -0.4,-0.3 -0.8,-0.6 -1.2,-0.9 -1.6,-1.5 -2.5,-3 -2.4,-4.5 0,-1.5 0.6,-3 1.8,-4.3 0.8,-0.9 1.6,-1.5 2.6,-1.9 0.9,-0.4 1.9,-0.5 3,-0.3 1,0.2 2.1,0.8 3.2,1.8 1,0.9 1.8,1.8 2.6,2.9 L 367,339 c -0.6,-1 -1,-1.7 -1.3,-2 -0.3,-0.4 -0.6,-0.7 -0.9,-1 -1,-0.9 -2.1,-1.2 -3.1,-1 -1,0.3 -2,0.9 -2.8,1.8 -0.9,1 -1.4,2.1 -1.4,3.2 0,1.1 0.5,2.1 1.4,2.9 0.2,0.2 0.5,0.4 0.8,0.6 l 2.6,-2.9 1.8,1.6 z"
   id="path21" />
	<path
   class="st2"
   d="m 362.3,348.4 8.9,-7.6 1.6,1.9 -8.9,7.6 z"
   id="path22" />
	<path
   class="st2"
   d="m 371.3,360.2 c -0.5,-0.3 -0.8,-0.6 -1.1,-0.9 -0.3,-0.3 -0.6,-0.6 -0.9,-1 -0.3,-0.4 -0.6,-0.8 -0.8,-1.2 -1.1,-1.7 -1.4,-3.3 -1,-4.8 0.4,-1.5 1.4,-2.7 2.9,-3.7 1.5,-1 3,-1.3 4.6,-1.1 1.5,0.2 2.9,1.3 4,3.1 0.7,1.1 1.2,2.2 1.7,3.5 l -1.6,1 c -0.1,-0.6 -0.3,-1.1 -0.4,-1.5 -0.1,-0.4 -0.3,-0.7 -0.4,-1 -0.1,-0.3 -0.3,-0.6 -0.5,-0.9 -0.7,-1.1 -1.6,-1.7 -2.7,-1.8 -1.1,0 -2.1,0.3 -3.2,1 -1.1,0.7 -1.9,1.6 -2.2,2.6 -0.3,1 -0.1,2.1 0.6,3.3 0.6,1 1.5,1.8 2.6,2.5 z"
   id="path23" />
	<path
   class="st2"
   d="m 371.7,361.9 12.6,0.1 0.9,2.3 -9.3,8.5 -0.9,-2.3 2.5,-2.3 -1.7,-4.5 h -3.4 z m 5.7,1.7 1.3,3.4 3.7,-3.4 z"
   id="path24" />
	<path
   class="st2"
   d="m 376.3,375.2 11.6,-2.1 0.4,2.4 -9.9,1.8 0.9,5.1 -1.6,0.3 z"
   id="path25" />
	<path
   class="st2"
   d="m 378,394.3 2,0.3 c -0.5,0.9 -0.8,1.5 -1,1.9 -0.1,0.4 -0.2,0.8 -0.3,1.2 -0.1,0.7 0,1.2 0.3,1.6 0.3,0.4 0.6,0.6 1,0.6 0.3,0 0.6,0 0.9,-0.2 0.3,-0.2 0.7,-0.6 1.2,-1.2 l 0.5,-0.7 c 0.8,-1 1.5,-1.7 2,-2 0.6,-0.3 1.2,-0.5 1.9,-0.4 0.9,0.1 1.6,0.6 2.1,1.3 0.5,0.8 0.7,1.8 0.6,3 -0.1,0.9 -0.4,2 -0.8,3.1 l -1.9,-0.2 c 0.6,-1.1 1,-2.1 1.1,-2.8 0.1,-0.6 0,-1 -0.2,-1.4 -0.2,-0.3 -0.5,-0.5 -0.9,-0.6 -0.3,0 -0.5,0 -0.8,0.2 -0.3,0.2 -0.6,0.6 -1.2,1.2 l -0.6,0.8 c -0.9,1.2 -1.6,1.9 -2.2,2.2 -0.6,0.3 -1.2,0.4 -1.9,0.3 -1,-0.1 -1.7,-0.6 -2.3,-1.4 -0.6,-0.8 -0.8,-2 -0.6,-3.6 0.4,-0.9 0.7,-2 1.1,-3.2 z"
   id="path26" />
	<path
   class="st2"
   d="m 374.6,409 c 0.4,-1.2 0.9,-2.1 1.7,-2.8 0.8,-0.7 1.7,-1.1 2.7,-1.3 1,-0.2 2.1,0 3.3,0.3 1.1,0.4 2.1,0.9 2.8,1.7 0.8,0.7 1.2,1.6 1.4,2.6 0.2,1 0.1,2.1 -0.3,3.3 -0.4,1.1 -0.9,2.1 -1.7,2.8 -0.8,0.7 -1.7,1.1 -2.7,1.3 -1.1,0.2 -2.1,0 -3.3,-0.3 -1.1,-0.4 -2.1,-0.9 -2.8,-1.7 -0.8,-0.7 -1.2,-1.6 -1.4,-2.6 -0.2,-1 -0.1,-2.1 0.3,-3.3 z m 1.5,0.5 c -0.4,1.1 -0.2,2 0.5,2.8 0.7,0.8 1.6,1.4 2.8,1.8 1.1,0.4 2.2,0.4 3.3,0.2 1,-0.2 1.7,-0.9 2.1,-2 0.4,-1.1 0.2,-2 -0.5,-2.8 -0.7,-0.8 -1.6,-1.4 -2.8,-1.8 -1.1,-0.4 -2.2,-0.4 -3.3,-0.2 -1,0.3 -1.7,1 -2.1,2 z"
   id="path27" />
	<path
   class="st2"
   d="m 367.7,425.2 c 0.1,-0.6 0.1,-1 0.3,-1.4 0.1,-0.4 0.3,-0.8 0.5,-1.2 0.2,-0.4 0.4,-0.9 0.6,-1.3 1,-1.8 2.3,-2.8 3.8,-3.1 1.5,-0.3 3,0 4.6,0.9 1.6,0.9 2.6,2.1 3.1,3.5 0.5,1.4 0.2,3.1 -0.8,5 -0.6,1.1 -1.4,2.1 -2.3,3.1 l -1.7,-0.9 c 0.5,-0.4 0.9,-0.8 1.1,-1.1 0.3,-0.3 0.5,-0.6 0.7,-0.8 0.2,-0.3 0.4,-0.6 0.6,-0.9 0.7,-1.2 0.8,-2.2 0.3,-3.2 -0.5,-1 -1.2,-1.8 -2.4,-2.4 -1.2,-0.7 -2.3,-0.9 -3.3,-0.7 -1.1,0.2 -1.9,0.9 -2.6,2.1 -0.6,1 -0.9,2.1 -1,3.4 z"
   id="path28" />
	<path
   class="st2"
   d="m 365.7,427 9.3,7.2 -1.5,1.9 -9.3,-7.2 z"
   id="path29" />
	<path
   class="st2"
   d="m 362,431.5 8.3,8.3 -5.3,5.3 -1.1,-1.1 3.6,-3.6 -2.3,-2.3 -3,3 -1.1,-1.1 3,-3 -2.5,-2.5 -3.9,3.9 -1.2,-1.2 z"
   id="path30" />
	<path
   class="st2"
   d="m 352.6,440 5.9,8.2 3.4,-2.4 0.9,1.3 -8.8,6.3 -0.9,-1.3 3.4,-2.4 -5.9,-8.2 z"
   id="path31" />
	<path
   class="st2"
   d="m 343.2,445.8 2.1,4.5 6.5,4.5 -2.4,1.1 -4.7,-3.3 -0.6,5.8 -1.8,0.8 0.8,-7.9 -2.1,-4.5 z"
   id="path32" />
</g>
<circle
   transform="rotate(-76.714204,4.7541173e-6,3.9511615e-8)"
   class="st3"
   cx="-61.746635"
   cy="99.771675"
   id="ellipse32"
   r="56.69791"
   style="filter:url(#filter3)" />
<path
   class="st4"
   d="m 42,97.1 c 0,0 -0.5,-13.7 0.6,-21.6 2.3,-15.9 8.9,-23.5 8.9,-23.5 0,0 -1.8,11.8 -2,14.2 -0.2,2.5 -0.9,9.9 -0.5,11.4 0.5,2.2 2,2.4 2.4,2.5 0.5,0.1 18.5,1.3 19.2,1.4 0.8,0.1 4.6,0.1 5.9,0.1 0.3,0 2.1,-0.6 4.2,-0.5 8.7,0.4 29.7,1.2 30.6,1.3 1.1,0 10.2,0.2 10.8,0.3 0.5,0 1.4,0.2 1.7,0.9 0.3,0.7 0.2,7.7 -0.3,8.3 -0.5,0.6 -0.9,0.7 -1.8,0.6 -0.9,0 -10.6,-1.1 -11.7,-1.2 C 108.9,91.2 80.7,88.8 79.9,88.6 79,88.4 77,87.9 76.3,87.5 c -0.6,-0.4 -4.7,-0.9 -6,-1 -1.3,-0.1 -18,-1.4 -18.9,-1 -0.9,0.4 -2.4,0.8 -2.9,2.4 -0.6,1.6 -0.6,9.3 -0.6,9.3 z"
   id="path33"
   style="filter:url(#filter2)" />

</svg>
